# xmcd
#
# Track frame offsets:
# 150
# 14143
# 31161
# 51827
# 66065
# 80573
# 94633
# 107835
# 123480
# 138355
# 154345
#
# Disc length: 2215 seconds
#
#
# Revision: 0
# Processed by: cddbd v1.5.2PL0 Copyright (c) Steve Scherf et al.
# Submitted via: FreeRIP 2.945 
#
DISCID=9208a50b
DTITLE=Reba McEntire  - Reba McEntire 
DYEAR=1993
DGENRE=Country
TTITLE0=Glad I Waited Just For You
TTITLE1=One To One
TTITLE2=Angel In Your Arms
TTITLE3=I Don't Want To Be A One Night Stand
TTITLE4=I've Waited All My Life For You
TTITLE5=I Was Glad To Give My Everything To You
TTITLE6=Take Your Love Away
TTITLE7=(There's Nothing Like The Love) Between A Woman And A Man
TTITLE8=Why Can't He Be You
TTITLE9=Invitation To The Blues
TTITLE10=Right Time Of The Night
EXTD=
EXTT0=
EXTT1=
EXTT2=
EXTT3=
EXTT4=
EXTT5=
EXTT6=
EXTT7=
EXTT8=
EXTT9=
EXTT10=
PLAYORDER=
